<?xml version="1.0" encoding="utf-8" standalone="no"?>
<!DOCTYPE svg PUBLIC "-//W3C//DTD SVG 1.1//EN"
  "http://www.w3.org/Graphics/SVG/1.1/DTD/svg11.dtd">
<svg xmlns:xlink="http://www.w3.org/1999/xlink" width="468.0864pt" height="266.764638pt" viewBox="0 0 468.0864 266.764638" xmlns="http://www.w3.org/2000/svg" version="1.1">
 <metadata>
  <rdf:RDF xmlns:dc="http://purl.org/dc/elements/1.1/" xmlns:cc="http://creativecommons.org/ns#" xmlns:rdf="http://www.w3.org/1999/02/22-rdf-syntax-ns#">
   <cc:Work>
    <dc:type rdf:resource="http://purl.org/dc/dcmitype/StillImage"/>
    <dc:date>2026-10-08T10:03:09.636449</dc:date>
    <dc:format>image/svg+xml</dc:format>
    <dc:creator>
     <cc:Agent>
      <dc:title>Matplotlib v3.11.2, https://matplotlib.org/</dc:title>
     </cc:Agent>
    </dc:creator>
   </cc:Work>
  </rdf:RDF>
 </metadata>
 <defs>
  <style type="text/css">*{stroke-linejoin: round; stroke-linecap: butt}</style>
 </defs>
 <g id="figure_1">
  <g id="patch_1">
   <path d="M 0 266.764638 
L 468.0864 266.764638 
L 468.0864 0 
L 0 0 
z
" style="fill: #ffffff"/>
  </g>
  <g id="axes_1">
   <g id="patch_2">
    <path d="M 32.688 233.3304 
L 460.8864 233.3304 
L 460.8864 56.4408 
L 32.688 56.4408 
z
" style="fill: #ffffff"/>
   </g>
   <g id="patch_3">
    <path d="M 32.688 56.4408 
L 460.8864 56.4408 
L 460.8864 81.710743 
L 32.688 81.710743 
z
" clip-path="url(#p4e899ff45e)" style="fill: #f6f8fa; stroke: #f6f8fa; stroke-linejoin: miter"/>
   </g>
   <g id="patch_4">
    <path d="M 32.688 106.980686 
L 460.8864 106.980686 
L 460.8864 132.250629 
L 32.688 132.250629 
z
" clip-path="url(#p4e899ff45e)" style="fill: #f6f8fa; stroke: #f6f8fa; stroke-linejoin: miter"/>
   </g>
   <g id="patch_5">
    <path d="M 32.688 157.520571 
L 460.8864 157.520571 
L 460.8864 182.790514 
L 32.688 182.790514 
z
" clip-path="url(#p4e899ff45e)" style="fill: #f6f8fa; stroke: #f6f8fa; stroke-linejoin: miter"/>
   </g>
   <g id="patch_6">
    <path d="M 32.688 208.060457 
L 460.8864 208.060457 
L 460.8864 233.3304 
L 32.688 233.3304 
z
" clip-path="url(#p4e899ff45e)" style="fill: #f6f8fa; stroke: #f6f8fa; stroke-linejoin: miter"/>
   </g>
   <g id="matplotlib.axis_1">
    <g id="xtick_1">
     <g id="line2d_1"/>
     <g id="text_1">
      <text style="font-size: 8px; font-family: 'DejaVu Sans'; text-anchor: middle; fill: #203746" x="90.129249" y="46.518925" transform="rotate(-0 90.129249 46.518925)">PHROG families</text>
     </g>
    </g>
    <g id="xtick_2">
     <g id="line2d_2"/>
     <g id="text_2">
      <text style="font-size: 8px; font-family: 'DejaVu Sans'; text-anchor: middle; fill: #203746" x="194.567883" y="46.518925" transform="rotate(-0 194.567883 46.518925)">Defense subtypes</text>
     </g>
    </g>
    <g id="xtick_3">
     <g id="line2d_3"/>
     <g id="text_3">
      <text style="font-size: 8px; font-family: 'DejaVu Sans'; text-anchor: middle; fill: #203746" x="299.006517" y="46.518925" transform="rotate(-0 299.006517 46.518925)">Anti-defense subtypes</text>
     </g>
    </g>
    <g id="xtick_4">
     <g id="line2d_4"/>
     <g id="text_4">
      <text style="font-size: 8px; font-family: 'DejaVu Sans'; text-anchor: middle; fill: #203746" x="403.445151" y="46.518925" transform="rotate(-0 403.445151 46.518925)">KO identifiers</text>
     </g>
    </g>
   </g>
   <g id="matplotlib.axis_2">
    <g id="ytick_1">
     <g id="line2d_5"/>
     <g id="text_5">
      <text style="font-size: 8px; font-family: 'DejaVu Sans'; text-anchor: end; fill: #203746" x="24.688" y="72.114834" transform="rotate(-0 24.688 72.114834)">M01</text>
     </g>
    </g>
    <g id="ytick_2">
     <g id="line2d_6"/>
     <g id="text_6">
      <text style="font-size: 8px; font-family: 'DejaVu Sans'; text-anchor: end; fill: #203746" x="24.688" y="97.384777" transform="rotate(-0 24.688 97.384777)">M02</text>
     </g>
    </g>
    <g id="ytick_3">
     <g id="line2d_7"/>
     <g id="text_7">
      <text style="font-size: 8px; font-family: 'DejaVu Sans'; text-anchor: end; fill: #203746" x="24.688" y="122.65472" transform="rotate(-0 24.688 122.65472)">M03</text>
     </g>
    </g>
    <g id="ytick_4">
     <g id="line2d_8"/>
     <g id="text_8">
      <text style="font-size: 8px; font-family: 'DejaVu Sans'; text-anchor: end; fill: #203746" x="24.688" y="147.924662" transform="rotate(-0 24.688 147.924662)">M04</text>
     </g>
    </g>
    <g id="ytick_5">
     <g id="line2d_9"/>
     <g id="text_9">
      <text style="font-size: 8px; font-family: 'DejaVu Sans'; text-anchor: end; fill: #203746" x="24.688" y="173.194605" transform="rotate(-0 24.688 173.194605)">M05</text>
     </g>
    </g>
    <g id="ytick_6">
     <g id="line2d_10"/>
     <g id="text_10">
      <text style="font-size: 8px; font-family: 'DejaVu Sans'; text-anchor: end; fill: #203746" x="24.688" y="198.464548" transform="rotate(-0 24.688 198.464548)">M06</text>
     </g>
    </g>
    <g id="ytick_7">
     <g id="line2d_11"/>
     <g id="text_11">
      <text style="font-size: 8px; font-family: 'DejaVu Sans'; text-anchor: end; fill: #203746" x="24.688" y="223.734491" transform="rotate(-0 24.688 223.734491)">M07</text>
     </g>
    </g>
   </g>
   <g id="PathCollection_1">
    <defs>
     <path id="m70e89c6ae8" d="M 0 10.723805 
C 2.843986 10.723805 5.571873 9.593878 7.582875 7.582875 
C 9.593878 5.571873 10.723805 2.843986 10.723805 0 
C 10.723805 -2.843986 9.593878 -5.571873 7.582875 -7.582875 
C 5.571873 -9.593878 2.843986 -10.723805 0 -10.723805 
C -2.843986 -10.723805 -5.571873 -9.593878 -7.582875 -7.582875 
C -9.593878 -5.571873 -10.723805 -2.843986 -10.723805 0 
C -10.723805 2.843986 -9.593878 5.571873 -7.582875 7.582875 
C -5.571873 9.593878 -2.843986 10.723805 0 10.723805 
z
" style="stroke: #ffffff; stroke-opacity: 0.87; stroke-width: 0.7"/>
    </defs>
    <g clip-path="url(#p4e899ff45e)">
     <use xlink:href="#m70e89c6ae8" x="90.129249" y="69.075771" style="fill: #277f85; fill-opacity: 0.87; stroke: #ffffff; stroke-opacity: 0.87; stroke-width: 0.7"/>
    </g>
   </g>
   <g id="text_12">
    <text style="font-size: 8px; font-family: 'DejaVu Sans'; text-anchor: middle; fill: #9ca9b1" x="194.567883" y="71.153896" transform="rotate(-0 194.567883 71.153896)">—</text>
   </g>
   <g id="text_13">
    <text style="font-size: 8px; font-family: 'DejaVu Sans'; text-anchor: middle; fill: #9ca9b1" x="299.006517" y="71.153896" transform="rotate(-0 299.006517 71.153896)">—</text>
   </g>
   <g id="PathCollection_2">
    <defs>
     <path id="mcc1f04c6f6" d="M 0 6.76532 
C 1.794184 6.76532 3.515124 6.052483 4.783804 4.783804 
C 6.052483 3.515124 6.76532 1.794184 6.76532 0 
C 6.76532 -1.794184 6.052483 -3.515124 4.783804 -4.783804 
C 3.515124 -6.052483 1.794184 -6.76532 0 -6.76532 
C -1.794184 -6.76532 -3.515124 -6.052483 -4.783804 -4.783804 
C -6.052483 -3.515124 -6.76532 -1.794184 -6.76532 0 
C -6.76532 1.794184 -6.052483 3.515124 -4.783804 4.783804 
C -3.515124 6.052483 -1.794184 6.76532 0 6.76532 
z
" style="stroke: #ffffff; stroke-opacity: 0.87; stroke-width: 0.7"/>
    </defs>
    <g clip-path="url(#p4e899ff45e)">
     <use xlink:href="#mcc1f04c6f6" x="403.445151" y="69.075771" style="fill: #cd8742; fill-opacity: 0.87; stroke: #ffffff; stroke-opacity: 0.87; stroke-width: 0.7"/>
    </g>
   </g>
   <g id="PathCollection_3">
    <defs>
     <path id="mad1347b305" d="M 0 9.20882 
C 2.442208 9.20882 4.784718 8.238521 6.511619 6.511619 
C 8.238521 4.784718 9.20882 2.442208 9.20882 0 
C 9.20882 -2.442208 8.238521 -4.784718 6.511619 -6.511619 
C 4.784718 -8.238521 2.442208 -9.20882 0 -9.20882 
C -2.442208 -9.20882 -4.784718 -8.238521 -6.511619 -6.511619 
C -8.238521 -4.784718 -9.20882 -2.442208 -9.20882 0 
C -9.20882 2.442208 -8.238521 4.784718 -6.511619 6.511619 
C -4.784718 8.238521 -2.442208 9.20882 0 9.20882 
z
" style="stroke: #ffffff; stroke-opacity: 0.87; stroke-width: 0.7"/>
    </defs>
    <g clip-path="url(#p4e899ff45e)">
     <use xlink:href="#mad1347b305" x="90.129249" y="94.345714" style="fill: #277f85; fill-opacity: 0.87; stroke: #ffffff; stroke-opacity: 0.87; stroke-width: 0.7"/>
    </g>
   </g>
   <g id="text_14">
    <text style="font-size: 8px; font-family: 'DejaVu Sans'; text-anchor: middle; fill: #9ca9b1" x="194.567883" y="96.423839" transform="rotate(-0 194.567883 96.423839)">—</text>
   </g>
   <g id="PathCollection_4">
    <defs>
     <path id="m94bc4ffdc7" d="M 0 4.690416 
C 1.243913 4.690416 2.437046 4.196204 3.316625 3.316625 
C 4.196204 2.437046 4.690416 1.243913 4.690416 0 
C 4.690416 -1.243913 4.196204 -2.437046 3.316625 -3.316625 
C 2.437046 -4.196204 1.243913 -4.690416 0 -4.690416 
C -1.243913 -4.690416 -2.437046 -4.196204 -3.316625 -3.316625 
C -4.196204 -2.437046 -4.690416 -1.243913 -4.690416 0 
C -4.690416 1.243913 -4.196204 2.437046 -3.316625 3.316625 
C -2.437046 4.196204 -1.243913 4.690416 0 4.690416 
z
" style="stroke: #ffffff; stroke-opacity: 0.87; stroke-width: 0.7"/>
    </defs>
    <g clip-path="url(#p4e899ff45e)">
     <use xlink:href="#m94bc4ffdc7" x="299.006517" y="94.345714" style="fill: #946b98; fill-opacity: 0.87; stroke: #ffffff; stroke-opacity: 0.87; stroke-width: 0.7"/>
    </g>
   </g>
   <g id="PathCollection_5">
    <defs>
     <path id="m442c8f91d2" d="M 0 5.233047 
C 1.38782 5.233047 2.718986 4.68166 3.700323 3.700323 
C 4.68166 2.718986 5.233047 1.38782 5.233047 0 
C 5.233047 -1.38782 4.68166 -2.718986 3.700323 -3.700323 
C 2.718986 -4.68166 1.38782 -5.233047 0 -5.233047 
C -1.38782 -5.233047 -2.718986 -4.68166 -3.700323 -3.700323 
C -4.68166 -2.718986 -5.233047 -1.38782 -5.233047 0 
C -5.233047 1.38782 -4.68166 2.718986 -3.700323 3.700323 
C -2.718986 4.68166 -1.38782 5.233047 0 5.233047 
z
" style="stroke: #ffffff; stroke-opacity: 0.87; stroke-width: 0.7"/>
    </defs>
    <g clip-path="url(#p4e899ff45e)">
     <use xlink:href="#m442c8f91d2" x="403.445151" y="94.345714" style="fill: #cd8742; fill-opacity: 0.87; stroke: #ffffff; stroke-opacity: 0.87; stroke-width: 0.7"/>
    </g>
   </g>
   <g id="PathCollection_6">
    <defs>
     <path id="m57adf69822" d="M 0 8.819838 
C 2.339048 8.819838 4.58261 7.890524 6.236567 6.236567 
C 7.890524 4.58261 8.819838 2.339048 8.819838 0 
C 8.819838 -2.339048 7.890524 -4.58261 6.236567 -6.236567 
C 4.58261 -7.890524 2.339048 -8.819838 0 -8.819838 
C -2.339048 -8.819838 -4.58261 -7.890524 -6.236567 -6.236567 
C -7.890524 -4.58261 -8.819838 -2.339048 -8.819838 0 
C -8.819838 2.339048 -7.890524 4.58261 -6.236567 6.236567 
C -4.58261 7.890524 -2.339048 8.819838 0 8.819838 
z
" style="stroke: #ffffff; stroke-opacity: 0.87; stroke-width: 0.7"/>
    </defs>
    <g clip-path="url(#p4e899ff45e)">
     <use xlink:href="#m57adf69822" x="90.129249" y="119.615657" style="fill: #277f85; fill-opacity: 0.87; stroke: #ffffff; stroke-opacity: 0.87; stroke-width: 0.7"/>
    </g>
   </g>
   <g id="text_15">
    <text style="font-size: 8px; font-family: 'DejaVu Sans'; text-anchor: middle; fill: #9ca9b1" x="194.567883" y="121.693782" transform="rotate(-0 194.567883 121.693782)">—</text>
   </g>
   <g id="PathCollection_7">
    <g clip-path="url(#p4e899ff45e)">
     <use xlink:href="#m94bc4ffdc7" x="299.006517" y="119.615657" style="fill: #946b98; fill-opacity: 0.87; stroke: #ffffff; stroke-opacity: 0.87; stroke-width: 0.7"/>
    </g>
   </g>
   <g id="PathCollection_8">
    <g clip-path="url(#p4e899ff45e)">
     <use xlink:href="#m442c8f91d2" x="403.445151" y="119.615657" style="fill: #cd8742; fill-opacity: 0.87; stroke: #ffffff; stroke-opacity: 0.87; stroke-width: 0.7"/>
    </g>
   </g>
   <g id="PathCollection_9">
    <defs>
     <path id="m6650856cd2" d="M 0 5.61397 
C 1.488842 5.61397 2.916906 5.022447 3.969676 3.969676 
C 5.022447 2.916906 5.61397 1.488842 5.61397 0 
C 5.61397 -1.488842 5.022447 -2.916906 3.969676 -3.969676 
C 2.916906 -5.022447 1.488842 -5.61397 0 -5.61397 
C -1.488842 -5.61397 -2.916906 -5.022447 -3.969676 -3.969676 
C -5.022447 -2.916906 -5.61397 -1.488842 -5.61397 0 
C -5.61397 1.488842 -5.022447 2.916906 -3.969676 3.969676 
C -2.916906 5.022447 -1.488842 5.61397 0 5.61397 
z
" style="stroke: #ffffff; stroke-opacity: 0.87; stroke-width: 0.7"/>
    </defs>
    <g clip-path="url(#p4e899ff45e)">
     <use xlink:href="#m6650856cd2" x="90.129249" y="144.8856" style="fill: #277f85; fill-opacity: 0.87; stroke: #ffffff; stroke-opacity: 0.87; stroke-width: 0.7"/>
    </g>
   </g>
   <g id="text_16">
    <text style="font-size: 8px; font-family: 'DejaVu Sans'; text-anchor: middle; fill: #9ca9b1" x="194.567883" y="146.963725" transform="rotate(-0 194.567883 146.963725)">—</text>
   </g>
   <g id="text_17">
    <text style="font-size: 8px; font-family: 'DejaVu Sans'; text-anchor: middle; fill: #9ca9b1" x="299.006517" y="146.963725" transform="rotate(-0 299.006517 146.963725)">—</text>
   </g>
   <g id="PathCollection_10">
    <defs>
     <path id="m2153f45a7f" d="M 0 4.690416 
C 1.243913 4.690416 2.437046 4.196204 3.316625 3.316625 
C 4.196204 2.437046 4.690416 1.243913 4.690416 0 
C 4.690416 -1.243913 4.196204 -2.437046 3.316625 -3.316625 
C 2.437046 -4.196204 1.243913 -4.690416 0 -4.690416 
C -1.243913 -4.690416 -2.437046 -4.196204 -3.316625 -3.316625 
C -4.196204 -2.437046 -4.690416 -1.243913 -4.690416 0 
C -4.690416 1.243913 -4.196204 2.437046 -3.316625 3.316625 
C -2.437046 4.196204 -1.243913 4.690416 0 4.690416 
z
" style="stroke: #ffffff; stroke-opacity: 0.87; stroke-width: 0.7"/>
    </defs>
    <g clip-path="url(#p4e899ff45e)">
     <use xlink:href="#m2153f45a7f" x="403.445151" y="144.8856" style="fill: #cd8742; fill-opacity: 0.87; stroke: #ffffff; stroke-opacity: 0.87; stroke-width: 0.7"/>
    </g>
   </g>
   <g id="PathCollection_11">
    <defs>
     <path id="mf2d230254a" d="M 0 4.690416 
C 1.243913 4.690416 2.437046 4.196204 3.316625 3.316625 
C 4.196204 2.437046 4.690416 1.243913 4.690416 0 
C 4.690416 -1.243913 4.196204 -2.437046 3.316625 -3.316625 
C 2.437046 -4.196204 1.243913 -4.690416 0 -4.690416 
C -1.243913 -4.690416 -2.437046 -4.196204 -3.316625 -3.316625 
C -4.196204 -2.437046 -4.690416 -1.243913 -4.690416 0 
C -4.690416 1.243913 -4.196204 2.437046 -3.316625 3.316625 
C -2.437046 4.196204 -1.243913 4.690416 0 4.690416 
z
" style="stroke: #ffffff; stroke-opacity: 0.87; stroke-width: 0.7"/>
    </defs>
    <g clip-path="url(#p4e899ff45e)">
     <use xlink:href="#mf2d230254a" x="90.129249" y="170.155543" style="fill: #277f85; fill-opacity: 0.87; stroke: #ffffff; stroke-opacity: 0.87; stroke-width: 0.7"/>
    </g>
   </g>
   <g id="text_18">
    <text style="font-size: 8px; font-family: 'DejaVu Sans'; text-anchor: middle; fill: #9ca9b1" x="194.567883" y="172.233668" transform="rotate(-0 194.567883 172.233668)">—</text>
   </g>
   <g id="text_19">
    <text style="font-size: 8px; font-family: 'DejaVu Sans'; text-anchor: middle; fill: #9ca9b1" x="299.006517" y="172.233668" transform="rotate(-0 299.006517 172.233668)">—</text>
   </g>
   <g id="text_20">
    <text style="font-size: 8px; font-family: 'DejaVu Sans'; text-anchor: middle; fill: #9ca9b1" x="403.445151" y="172.233668" transform="rotate(-0 403.445151 172.233668)">—</text>
   </g>
   <g id="PathCollection_12">
    <g clip-path="url(#p4e899ff45e)">
     <use xlink:href="#mf2d230254a" x="90.129249" y="195.425486" style="fill: #277f85; fill-opacity: 0.87; stroke: #ffffff; stroke-opacity: 0.87; stroke-width: 0.7"/>
    </g>
   </g>
   <g id="text_21">
    <text style="font-size: 8px; font-family: 'DejaVu Sans'; text-anchor: middle; fill: #9ca9b1" x="194.567883" y="197.503611" transform="rotate(-0 194.567883 197.503611)">—</text>
   </g>
   <g id="text_22">
    <text style="font-size: 8px; font-family: 'DejaVu Sans'; text-anchor: middle; fill: #9ca9b1" x="299.006517" y="197.503611" transform="rotate(-0 299.006517 197.503611)">—</text>
   </g>
   <g id="text_23">
    <text style="font-size: 8px; font-family: 'DejaVu Sans'; text-anchor: middle; fill: #9ca9b1" x="403.445151" y="197.503611" transform="rotate(-0 403.445151 197.503611)">—</text>
   </g>
   <g id="PathCollection_13">
    <g clip-path="url(#p4e899ff45e)">
     <use xlink:href="#mf2d230254a" x="90.129249" y="220.695429" style="fill: #277f85; fill-opacity: 0.87; stroke: #ffffff; stroke-opacity: 0.87; stroke-width: 0.7"/>
    </g>
   </g>
   <g id="text_24">
    <text style="font-size: 8px; font-family: 'DejaVu Sans'; text-anchor: middle; fill: #9ca9b1" x="194.567883" y="222.773554" transform="rotate(-0 194.567883 222.773554)">—</text>
   </g>
   <g id="text_25">
    <text style="font-size: 8px; font-family: 'DejaVu Sans'; text-anchor: middle; fill: #9ca9b1" x="299.006517" y="222.773554" transform="rotate(-0 299.006517 222.773554)">—</text>
   </g>
   <g id="text_26">
    <text style="font-size: 8px; font-family: 'DejaVu Sans'; text-anchor: middle; fill: #9ca9b1" x="403.445151" y="222.773554" transform="rotate(-0 403.445151 222.773554)">—</text>
   </g>
   <g id="text_27">
    <text style="font-weight: 700; font-size: 7.5px; font-family: 'DejaVu Sans'; text-anchor: middle; fill: #ffffff" x="90.129249" y="71.024014" transform="rotate(-0 90.129249 71.024014)">72</text>
   </g>
   <g id="text_28">
    <text style="font-weight: 700; font-size: 7.5px; font-family: 'DejaVu Sans'; text-anchor: middle; fill: #ffffff" x="403.445151" y="71.024014" transform="rotate(-0 403.445151 71.024014)">8</text>
   </g>
   <g id="text_29">
    <text style="font-weight: 700; font-size: 7.5px; font-family: 'DejaVu Sans'; text-anchor: middle; fill: #ffffff" x="90.129249" y="96.293956" transform="rotate(-0 90.129249 96.293956)">34</text>
   </g>
   <g id="text_30">
    <text style="font-weight: 700; font-size: 7.5px; font-family: 'DejaVu Sans'; text-anchor: middle; fill: #ffffff" x="299.006517" y="96.293956" transform="rotate(-0 299.006517 96.293956)">1</text>
   </g>
   <g id="text_31">
    <text style="font-weight: 700; font-size: 7.5px; font-family: 'DejaVu Sans'; text-anchor: middle; fill: #ffffff" x="403.445151" y="96.293956" transform="rotate(-0 403.445151 96.293956)">2</text>
   </g>
   <g id="text_32">
    <text style="font-weight: 700; font-size: 7.5px; font-family: 'DejaVu Sans'; text-anchor: middle; fill: #ffffff" x="90.129249" y="121.563899" transform="rotate(-0 90.129249 121.563899)">28</text>
   </g>
   <g id="text_33">
    <text style="font-weight: 700; font-size: 7.5px; font-family: 'DejaVu Sans'; text-anchor: middle; fill: #ffffff" x="299.006517" y="121.563899" transform="rotate(-0 299.006517 121.563899)">1</text>
   </g>
   <g id="text_34">
    <text style="font-weight: 700; font-size: 7.5px; font-family: 'DejaVu Sans'; text-anchor: middle; fill: #ffffff" x="403.445151" y="121.563899" transform="rotate(-0 403.445151 121.563899)">2</text>
   </g>
   <g id="text_35">
    <text style="font-weight: 700; font-size: 7.5px; font-family: 'DejaVu Sans'; text-anchor: middle; fill: #ffffff" x="90.129249" y="146.833842" transform="rotate(-0 90.129249 146.833842)">3</text>
   </g>
   <g id="text_36">
    <text style="font-weight: 700; font-size: 7.5px; font-family: 'DejaVu Sans'; text-anchor: middle; fill: #ffffff" x="403.445151" y="146.833842" transform="rotate(-0 403.445151 146.833842)">1</text>
   </g>
   <g id="text_37">
    <text style="font-weight: 700; font-size: 7.5px; font-family: 'DejaVu Sans'; text-anchor: middle; fill: #ffffff" x="90.129249" y="172.103785" transform="rotate(-0 90.129249 172.103785)">1</text>
   </g>
   <g id="text_38">
    <text style="font-weight: 700; font-size: 7.5px; font-family: 'DejaVu Sans'; text-anchor: middle; fill: #ffffff" x="90.129249" y="197.373728" transform="rotate(-0 90.129249 197.373728)">1</text>
   </g>
   <g id="text_39">
    <text style="font-weight: 700; font-size: 7.5px; font-family: 'DejaVu Sans'; text-anchor: middle; fill: #ffffff" x="90.129249" y="222.643671" transform="rotate(-0 90.129249 222.643671)">1</text>
   </g>
  </g>
  <g id="text_40">
   <text style="font-weight: 700; font-size: 11px; font-family: 'DejaVu Sans'; text-anchor: start; fill: #203746" x="7.2" y="15.558281" transform="rotate(-0 7.2 15.558281)">Sequence-specific functional evidence</text>
  </g>
  <g id="text_41">
   <text style="font-size: 7.5px; font-family: 'DejaVu Sans'; text-anchor: start; fill: #6c7d87" x="7.2" y="257.76288" transform="rotate(-0 7.2 257.76288)">Own-sequence annotation evidence  |  — No reported hit  |  ? Not assessed / missing source</text>
  </g>
 </g>
 <defs>
  <clipPath id="p4e899ff45e">
   <rect x="32.688" y="56.4408" width="428.1984" height="176.8896"/>
  </clipPath>
 </defs>
</svg>
